I.Come.with.the.Rain.2008.lkrg.mp4

File Size
Format : MPEG-4
Format profile : Base Media
Codec ID : isom
File size : 2.86 GiB
Duration : 1h 54mn
Overall bit rate : 3 580 Kbps

Video
ID : 1
Format : AVC
Format/Info : Advanced Video Codec
Format profile : High@L4.1
Format settings, CABAC : Yes
Format settings, ReFrames : 3 frames
Codec ID : avc1
Codec ID/Info : Advanced Video Coding
Duration : 1h 54mn
Bit rate mode : Variable
Bit rate : 3 000 Kbps
Maximum bit rate : 13.6 Mbps
Width : 1 280 pixels
Height : 720 pixels
Display aspect ratio : 16:9
Frame rate mode : Constant
Frame rate : 23.976 fps
Resolution : 24 bits
Colorimetry : 4:2:0
Scan type : Progressive
Bits/(Pixel*Frame) : 0.136
Stream size : 2.40 GiB (84%)

Audio #1
ID : 2
Format : AAC
Format/Info : Advanced Audio Codec
Format version : Version 4
Format profile : LC
Format settings, SBR : No
Codec ID : 40
Duration : 1h 54mn
Bit rate mode : Variable
Bit rate : 128 Kbps
Maximum bit rate : 138 Kbps
Channel(s) : 2 channels
Channel positions : L R
Sampling rate : 48.0 KHz
Resolution : 16 bits
Stream size : 105 MiB (4%)

Audio #2
ID : 3
Format : AAC
Format/Info : Advanced Audio Codec
Format version : Version 4
Format profile : LC
Format settings, SBR : No
Codec ID : 40
Duration : 1h 54mn
Bit rate mode : Variable
Bit rate : 448 Kbps
Maximum bit rate : 461 Kbps
Channel(s) : 6 channels
Channel positions : Front: L C R, Rear: L R, LFE
Sampling rate : 48.0 KHz
Resolution : 16 bits
Stream size : 366 MiB (13%)

English SRT : N/A

Language :English

Info Hash:

Tracker Info:
Code: 
http://nemesis.1337x.org/announce
 
http://tracker.publicbt.com/announce
 
http://genesis.1337x.org:1337/announce
 
http://exodus.1337x.org/announce




6 June 2009 (Japan)

Genre: Thriller

Plot: Ex-Los Angeles cop turned private eye Kline travels to Hong Kong in search of Shitao, the missing son of a powerful pharmaceutical conglomerate boss. Enlisting Meng Zi a friend and a former colleague now working for the Hong Kong Police, Kline follows a faint trail left by the ethereal Shitao. The path leads to local gangster Su Dongpo and his beautiful, drug addicted girlfriend Lili. But Kline is distracted from his search, haunted by memories of the serial killer Hasford whose 'body of work' was the reason Kline quit the police force. Will Kline once again need to lose his mind to find his latest quarry?

Cast:
Josh Hartnett ... Kline
Tran Nu Yên-Khê ... Lili
Byung-hun Lee ... Su Dongpo
Takuya Kimura ... Shitao
Shawn Yue ... Meng Zi
Elias Koteas ... Hasford
Eusebio Poncela ... Vargas
Simón Andreu
Thea Aquino ... Dancer
Bo-yuan Chan ... Dai Xi
Tse-ho Chow ... Mifu
Russ Kingston ... Felix Sportis
Jo Kuk ... 9mm Lover
Sam Lee ... Monk Artist
Alvaro Longoria ... Psychiatrist
Carl Ng ... Dead Sack Man
Benito Sagredo ... Male Nurse
David Tang ... Wang Wei


 
http://www.imdb.com/title/tt1024744/








Another Quality Upload Brought To
